<svg xmlns="http://www.w3.org/2000/svg" viewBox="0 0 24 24" fill="none" stroke="#C5C5C5" stroke-linecap="round">
  <path d="M 17 2 A 5 5 0 0 0 22 7" stroke-width="1.6"/>
  <path d="M 13 2 A 9 9 0 0 0 22 11" stroke-width="1.4" opacity="0.85"/>
  <path d="M 9 2 A 13 13 0 0 0 22 15" stroke-width="1.2" opacity="0.7"/>
  <path d="M 5 2 A 17 17 0 0 0 22 19" stroke-width="1.0" opacity="0.55"/>
  <path d="M 2 5 A 17 17 0 0 0 19 22" stroke-width="1.0" opacity="0.55"/>
  <path d="M 2 9 A 13 13 0 0 0 15 22" stroke-width="1.2" opacity="0.7"/>
  <path d="M 2 13 A 9 9 0 0 0 11 22" stroke-width="1.4" opacity="0.85"/>
  <path d="M 2 17 A 5 5 0 0 0 7 22" stroke-width="1.6"/>
</svg>
